# xmcd
# Track frame offsets:
# 150
# 12344
# 26621
# 48679
# 68353
# 93808
# 109103
#
# Disc length: 1713 seconds
# Revision: 0
# Processed by: cddbd v1.4PL0 Copyright (c) Steve Scherf et al.
# Submitted via: VisiTrax 2.9.3.171 - For more info visit www.synapsa.com
#
DISCID=4d06af07
DTITLE=Stacey Earle - Sampler
DYEAR=2003
DGENRE=Alternative Country
TTITLE0=Promise you anything
TTITLE1=Kiss
TTITLE2=Losers weep
TTITLE3=Wedding night
TTITLE4=Must be love
TTITLE5=Is it enough (I luuuv you)
TTITLE6=Cried my heart out
EXTD=cd sampler
EXTT0=
EXTT1=
EXTT2=
EXTT3=
EXTT4=
EXTT5=
EXTT6=
PLAYORDER=
